<?xml version="1.0" encoding="UTF-8" standalone="no"?>
<!-- Created with Inkscape (http://www.inkscape.org/) -->

<svg
   width="34.23761mm"
   height="11.013676mm"
   viewBox="0 0 34.23761 11.013676"
   version="1.1"
   id="svg1"
   inkscape:version="1.3 (0e150ed6c4, 2023-07-21)"
   sodipodi:docname="jskerr-building-limited-logo.svg"
   xmlns:inkscape="http://www.inkscape.org/namespaces/inkscape"
   xmlns:sodipodi="http://sodipodi.sourceforge.net/DTD/sodipodi-0.dtd"
   xmlns="http://www.w3.org/2000/svg"
   xmlns:svg="http://www.w3.org/2000/svg">
  <sodipodi:namedview
     id="namedview1"
     pagecolor="#ffffff"
     bordercolor="#000000"
     borderopacity="0.25"
     inkscape:showpageshadow="2"
     inkscape:pageopacity="0.0"
     inkscape:pagecheckerboard="0"
     inkscape:deskcolor="#d1d1d1"
     inkscape:document-units="mm"
     showguides="true"
     inkscape:zoom="4.0265009"
     inkscape:cx="265.86359"
     inkscape:cy="69.911818"
     inkscape:window-width="1920"
     inkscape:window-height="1013"
     inkscape:window-x="-9"
     inkscape:window-y="-9"
     inkscape:window-maximized="1"
     inkscape:current-layer="layer1" />
  <defs
     id="defs1" />
  <g
     inkscape:label="Layer 1"
     inkscape:groupmode="layer"
     id="layer1"
     transform="translate(-41.427709,-9.7920587)">
    <g
       id="g1">
      <g
         id="text16"
         style="font-weight:600;font-size:2.82222px;font-family:Montserrat;-inkscape-font-specification:'Montserrat, Semi-Bold';text-align:justify;letter-spacing:0px;word-spacing:0px;stroke-width:4.16499"
         aria-label="J. S. Kerr BUILDING Limited">
        <path
           style="font-weight:500;font-size:4.93889px;-inkscape-font-specification:'Montserrat, Medium';letter-spacing:-0.396875px;fill:#000000"
           d="m 43.458994,13.328309 q -0.306211,0 -0.572911,-0.128411 -0.2667,-0.128411 -0.434622,-0.370416 l 0.286455,-0.335845 q 0.143228,0.197556 0.321028,0.306211 0.182739,0.103717 0.40005,0.103717 0.592667,0 0.592667,-0.701322 V 10.261259 H 42.802122 V 9.8315753 h 1.738489 v 2.3459727 q 0,0.57785 -0.276578,0.864306 -0.271639,0.286455 -0.805039,0.286455 z m 1.69722,-0.0099 q -0.138289,0 -0.237067,-0.09384 -0.09878,-0.09878 -0.09878,-0.246945 0,-0.148166 0.09878,-0.242005 0.09878,-0.09384 0.237067,-0.09384 0.13335,0 0.227189,0.09384 0.09878,0.09384 0.09878,0.242005 0,0.148167 -0.09878,0.246945 -0.09384,0.09384 -0.227189,0.09384 z m 2.619015,0.0099 q -0.395112,0 -0.755651,-0.118533 -0.360538,-0.123472 -0.567972,-0.316089 l 0.182739,-0.385233 q 0.197556,0.172861 0.503767,0.286455 0.306211,0.113595 0.637117,0.113595 0.301272,0 0.48895,-0.06915 0.187678,-0.06914 0.276578,-0.187677 0.0889,-0.123473 0.0889,-0.276578 0,-0.1778 -0.118534,-0.286456 -0.113594,-0.108656 -0.301272,-0.172861 -0.182739,-0.06915 -0.404989,-0.118533 -0.22225,-0.04939 -0.449439,-0.113595 -0.22225,-0.06914 -0.409928,-0.172861 -0.182739,-0.103717 -0.296333,-0.276578 -0.113595,-0.1778 -0.113595,-0.454378 0,-0.2667 0.138289,-0.48895 0.143228,-0.227189 0.434623,-0.3605389 0.296333,-0.1382889 0.750711,-0.1382889 0.301272,0 0.597605,0.079022 0.296334,0.079022 0.513645,0.2271888 l -0.162983,0.395112 q -0.22225,-0.148167 -0.469195,-0.212373 -0.246944,-0.06914 -0.479072,-0.06914 -0.291395,0 -0.479073,0.07408 -0.187677,0.07408 -0.276577,0.197556 -0.08396,0.123472 -0.08396,0.276578 0,0.182739 0.113595,0.291394 0.118533,0.108656 0.301272,0.172861 0.187678,0.06421 0.409928,0.118534 0.22225,0.04939 0.4445,0.113594 0.227189,0.06421 0.409928,0.167922 0.187678,0.103717 0.301272,0.276578 0.113595,0.172861 0.113595,0.4445 0,0.261762 -0.143228,0.48895 -0.143228,0.222251 -0.4445,0.360539 -0.296333,0.13335 -0.750711,0.13335 z m 1.805874,-0.0099 q -0.138289,0 -0.237067,-0.09384 -0.09878,-0.09878 -0.09878,-0.246945 0,-0.148166 0.09878,-0.242005 0.09878,-0.09384 0.237067,-0.09384 0.13335,0 0.227189,0.09384 0.09878,0.09384 0.09878,0.242005 0,0.148167 -0.09878,0.246945 -0.09384,0.09384 -0.227189,0.09384 z m 2.046104,-0.864306 -0.0247,-0.602545 1.960739,-2.0200057 h 0.563034 l -1.516239,1.6002007 -0.276578,0.306211 z m -0.434623,0.834672 V 9.8315753 h 0.493889 v 3.4572227 z m 2.44969,0 -1.417462,-1.649589 0.330906,-0.365478 1.664406,2.015067 z m 1.687332,0.02963 q -0.419806,0 -0.740833,-0.172861 -0.316089,-0.172862 -0.493889,-0.474134 -0.172862,-0.301272 -0.172862,-0.691445 0,-0.390172 0.167923,-0.691444 0.172861,-0.301272 0.469194,-0.469195 0.301272,-0.172861 0.676628,-0.172861 0.380295,0 0.671689,0.167922 0.291395,0.167923 0.454378,0.474134 0.167922,0.301272 0.167922,0.706261 0,0.02963 -0.0049,0.06915 0,0.03951 -0.0049,0.07408 h -2.22744 v -0.340783 h 1.980495 l -0.192617,0.118533 q 0.0049,-0.251883 -0.103716,-0.449439 -0.108656,-0.197556 -0.301273,-0.306211 -0.187677,-0.113595 -0.439561,-0.113595 -0.246944,0 -0.439561,0.113595 -0.192617,0.108655 -0.301272,0.31115 -0.108656,0.197555 -0.108656,0.454378 v 0.07902 q 0,0.261761 0.118533,0.469194 0.123473,0.202495 0.340784,0.316089 0.217311,0.113595 0.498828,0.113595 0.232128,0 0.419805,-0.07902 0.192617,-0.07902 0.335845,-0.237067 l 0.261761,0.306211 q -0.1778,0.207434 -0.4445,0.316089 -0.261761,0.108656 -0.587728,0.108656 z m 1.460145,-0.02963 v -2.617611 h 0.454378 v 0.7112 l -0.04445,-0.1778 q 0.108655,-0.271639 0.365478,-0.414867 0.256822,-0.143228 0.632178,-0.143228 v 0.459317 q -0.02963,-0.0049 -0.05927,-0.0049 -0.02469,0 -0.04939,0 -0.380294,0 -0.602545,0.227189 -0.22225,0.227189 -0.22225,0.656872 v 1.303867 z m 1.593497,0 v -2.617611 h 0.454378 v 0.7112 l -0.04445,-0.1778 q 0.108656,-0.271639 0.365478,-0.414867 0.256822,-0.143228 0.632178,-0.143228 v 0.459317 q -0.02963,-0.0049 -0.05927,-0.0049 -0.02469,0 -0.04939,0 -0.380294,0 -0.602544,0.227189 -0.22225,0.227189 -0.22225,0.656872 v 1.303867 z"
           id="path3" />
        <path
           style="font-size:6.35px;letter-spacing:0.325437px;fill:#bc4a3c;fill-opacity:1"
           d="m 41.427709,18.288798 v -4.445 h 2.0828 q 0.8001,0 1.2192,0.3175 0.4191,0.31115 0.4191,0.8382 0,0.3556 -0.1651,0.6096 -0.1651,0.24765 -0.4445,0.38735 -0.27305,0.13335 -0.5969,0.13335 l 0.1143,-0.2286 q 0.37465,0 0.6731,0.1397 0.29845,0.13335 0.4699,0.3937 0.1778,0.26035 0.1778,0.6477 0,0.5715 -0.43815,0.889 -0.43815,0.3175 -1.30175,0.3175 z m 0.8255,-0.6477 h 1.3335 q 0.46355,0 0.7112,-0.1524 0.24765,-0.1524 0.24765,-0.48895 0,-0.3302 -0.24765,-0.4826 -0.24765,-0.15875 -0.7112,-0.15875 h -1.397 v -0.64135 h 1.2319 q 0.4318,0 0.6604,-0.1524 0.23495,-0.1524 0.23495,-0.4572 0,-0.31115 -0.23495,-0.46355 -0.2286,-0.1524 -0.6604,-0.1524 h -1.1684 z m 6.243634,0.7112 q -0.9144,0 -1.4351,-0.51435 -0.51435,-0.51435 -0.51435,-1.4859 v -2.50825 h 0.8255 v 2.4765 q 0,0.6858 0.2921,0.99695 0.29845,0.31115 0.8382,0.31115 0.53975,0 0.83185,-0.31115 0.2921,-0.31115 0.2921,-0.99695 v -2.4765 h 0.8128 v 2.50825 q 0,0.97155 -0.5207,1.4859 -0.51435,0.51435 -1.4224,0.51435 z m 3.424234,-0.0635 v -4.445 h 0.8255 v 4.445 z m 2.351089,0 v -4.445 h 0.8255 v 3.7465 h 2.3241 v 0.6985 z m 4.129092,0 v -4.445 h 1.9431 q 0.7239,0 1.27,0.2794 0.5461,0.2794 0.8509,0.7747 0.3048,0.4953 0.3048,1.1684 0,0.66675 -0.3048,1.1684 -0.3048,0.4953 -0.8509,0.7747 -0.5461,0.2794 -1.27,0.2794 z m 0.8255,-0.6985 h 1.0795 q 0.50165,0 0.8636,-0.1905 0.3683,-0.1905 0.56515,-0.5334 0.2032,-0.3429 0.2032,-0.8001 0,-0.46355 -0.2032,-0.8001 -0.19685,-0.3429 -0.56515,-0.5334 -0.36195,-0.1905 -0.8636,-0.1905 h -1.0795 z m 4.745039,0.6985 v -4.445 h 0.8255 v 4.445 z m 2.351089,0 v -4.445 h 0.67945 l 2.787649,3.42265 h -0.33655 v -3.42265 h 0.81915 v 4.445 h -0.67945 l -2.787649,-3.42265 h 0.33655 v 3.42265 z m 7.545384,0.0635 q -0.5207,0 -0.95885,-0.1651 -0.4318,-0.17145 -0.75565,-0.47625 -0.32385,-0.31115 -0.50165,-0.73025 -0.1778,-0.4191 -0.1778,-0.9144 0,-0.4953 0.1778,-0.9144 0.1778,-0.4191 0.50165,-0.7239 0.3302,-0.31115 0.76835,-0.47625 0.43815,-0.17145 0.95885,-0.17145 0.56515,0 1.016,0.18415 0.4572,0.18415 0.76835,0.53975 l -0.5207,0.508 q -0.26035,-0.26035 -0.56515,-0.381 -0.29845,-0.127 -0.6604,-0.127 -0.34925,0 -0.6477,0.1143 -0.29845,0.1143 -0.51435,0.32385 -0.2159,0.20955 -0.33655,0.4953 -0.1143,0.28575 -0.1143,0.62865 0,0.33655 0.1143,0.6223 0.12065,0.28575 0.33655,0.50165 0.2159,0.20955 0.508,0.32385 0.2921,0.1143 0.6477,0.1143 0.3302,0 0.635,-0.1016 0.31115,-0.10795 0.59055,-0.3556 l 0.4699,0.61595 q -0.34925,0.2794 -0.8128,0.42545 -0.4572,0.1397 -0.9271,0.1397 z m 0.95885,-0.6731 v -1.6637 h 0.78105 v 1.77165 z"
           id="path4" />
        <path
           style="font-weight:500;-inkscape-font-specification:'Montserrat, Medium';letter-spacing:3.05858px;fill:#000000"
           d="m 46.737815,20.788798 v -1.975554 h 0.282222 v 1.730021 h 1.069622 v 0.245533 z m 4.695467,0 v -1.495776 h 0.270933 v 1.495776 z m 0.135467,-1.783643 q -0.07902,0 -0.132644,-0.0508 -0.0508,-0.0508 -0.0508,-0.124177 0,-0.0762 0.0508,-0.127 0.05362,-0.0508 0.132644,-0.0508 0.07902,0 0.129822,0.0508 0.05362,0.04798 0.05362,0.121355 0,0.0762 -0.0508,0.129822 -0.0508,0.0508 -0.132644,0.0508 z m 5.581643,0.273756 q 0.180622,0 0.31891,0.07055 0.138289,0.07056 0.214489,0.214489 0.07902,0.143933 0.07902,0.364066 v 0.860777 H 57.49188 v -0.829732 q 0,-0.217311 -0.1016,-0.327378 -0.1016,-0.110066 -0.285044,-0.110066 -0.135467,0 -0.237066,0.05644 -0.1016,0.05644 -0.158045,0.166511 -0.05362,0.110066 -0.05362,0.273755 v 0.770466 H 56.38557 v -0.829732 q 0,-0.217311 -0.1016,-0.327378 -0.09878,-0.110066 -0.285044,-0.110066 -0.132645,0 -0.234245,0.05644 -0.101599,0.05644 -0.158044,0.166511 -0.05644,0.110066 -0.05644,0.273755 v 0.770466 H 55.27926 v -1.495776 h 0.259644 v 0.397933 l -0.04233,-0.1016 q 0.07055,-0.146756 0.21731,-0.2286 0.146756,-0.08184 0.341489,-0.08184 0.214489,0 0.369711,0.107244 0.155222,0.104422 0.2032,0.318911 l -0.110067,-0.04516 q 0.06773,-0.172155 0.237067,-0.276577 0.169333,-0.104422 0.395111,-0.104422 z m 4.170532,1.509887 v -1.495776 h 0.270933 v 1.495776 z m 0.135467,-1.783643 q -0.07902,0 -0.132645,-0.0508 -0.0508,-0.0508 -0.0508,-0.124177 0,-0.0762 0.0508,-0.127 0.05362,-0.0508 0.132645,-0.0508 0.07902,0 0.129822,0.0508 0.05362,0.04798 0.05362,0.121355 0,0.0762 -0.0508,0.129822 -0.0508,0.0508 -0.132644,0.0508 z m 4.224154,1.800577 q -0.225778,0 -0.349955,-0.121356 -0.124178,-0.121355 -0.124178,-0.347133 v -1.371599 h 0.270933 v 1.36031 q 0,0.121356 0.05927,0.186267 0.06209,0.06491 0.174978,0.06491 0.126999,0 0.211666,-0.07056 l 0.08467,0.194734 q -0.06209,0.05362 -0.149578,0.07902 -0.08467,0.0254 -0.1778,0.0254 z m -0.728133,-1.289755 v -0.222955 h 0.953911 v 0.222955 z m 5.056712,1.289755 q -0.239889,0 -0.423333,-0.09878 -0.180622,-0.09878 -0.282222,-0.270933 -0.09878,-0.172156 -0.09878,-0.395111 0,-0.222955 0.09596,-0.395111 0.09878,-0.172155 0.268111,-0.268111 0.172155,-0.09878 0.386644,-0.09878 0.217311,0 0.383822,0.09596 0.166511,0.09596 0.259644,0.270933 0.09596,0.172156 0.09596,0.403578 0,0.01693 -0.0028,0.03951 0,0.02258 -0.0028,0.04233 h -1.272821 v -0.194733 h 1.13171 l -0.110067,0.06773 q 0.0028,-0.143933 -0.05927,-0.256822 -0.06209,-0.112889 -0.172156,-0.174978 -0.107244,-0.06491 -0.251177,-0.06491 -0.141111,0 -0.251178,0.06491 -0.110066,0.06209 -0.172155,0.1778 -0.06209,0.112889 -0.06209,0.259645 v 0.04516 q 0,0.149578 0.06773,0.268111 0.07056,0.115711 0.194733,0.180622 0.124178,0.06491 0.285045,0.06491 0.132644,0 0.239888,-0.04515 0.110067,-0.04516 0.191911,-0.135467 l 0.149578,0.174978 q -0.1016,0.118533 -0.254,0.180622 -0.149578,0.06209 -0.335844,0.06209 z m 4.7378,0 q -0.217311,0 -0.389466,-0.09596 -0.169333,-0.09596 -0.268111,-0.268111 -0.09878,-0.172155 -0.09878,-0.400755 0,-0.2286 0.09878,-0.397933 0.09878,-0.172155 0.268111,-0.268111 0.172155,-0.09596 0.389466,-0.09596 0.189089,0 0.341489,0.08467 0.1524,0.08467 0.242711,0.254 0.09313,0.169333 0.09313,0.423333 0,0.254 -0.09031,0.423333 -0.08749,0.169333 -0.239889,0.256822 -0.1524,0.08467 -0.347133,0.08467 z m 0.02258,-0.237067 q 0.141111,0 0.254,-0.06491 0.115711,-0.06491 0.180622,-0.183444 0.06773,-0.121356 0.06773,-0.2794 0,-0.160867 -0.06773,-0.276578 -0.06491,-0.118533 -0.180622,-0.183444 -0.112889,-0.06491 -0.254,-0.06491 -0.143933,0 -0.256822,0.06491 -0.112889,0.06491 -0.180622,0.183444 -0.06773,0.115711 -0.06773,0.276578 0,0.158044 0.06773,0.2794 0.06773,0.118533 0.180622,0.183444 0.112889,0.06491 0.256822,0.06491 z m 0.510822,0.220133 v -0.403577 l 0.01693,-0.347133 -0.02822,-0.347133 v -0.996244 h 0.270933 v 2.094087 z"
           id="path5" />
      </g>
    </g>
  </g>
</svg>
