<?xml version="1.0" encoding="UTF-8" standalone="no"?>
<!-- Created with Inkscape (http://www.inkscape.org/) -->

<svg
   width="488.8801"
   height="57.919998"
   viewBox="0 0 488.8801 57.919998"
   version="1.1"
   id="svg1"
   inkscape:version="1.3 (0e150ed6c4, 2023-07-21)"
   sodipodi:docname="JSKBWKLTD-Logo.svg"
   inkscape:export-filename="JSKBWKLTD-Logo-Plain.svg"
   inkscape:export-xdpi="96"
   inkscape:export-ydpi="96"
   xmlns:inkscape="http://www.inkscape.org/namespaces/inkscape"
   xmlns:sodipodi="http://sodipodi.sourceforge.net/DTD/sodipodi-0.dtd"
   xmlns="http://www.w3.org/2000/svg"
   xmlns:svg="http://www.w3.org/2000/svg">
  <sodipodi:namedview
     id="namedview1"
     pagecolor="#ffffff"
     bordercolor="#000000"
     borderopacity="0.25"
     inkscape:showpageshadow="2"
     inkscape:pageopacity="0.0"
     inkscape:pagecheckerboard="0"
     inkscape:deskcolor="#d1d1d1"
     inkscape:document-units="px"
     inkscape:zoom="1.5605469"
     inkscape:cx="256"
     inkscape:cy="255.6796"
     inkscape:window-width="2400"
     inkscape:window-height="1284"
     inkscape:window-x="-9"
     inkscape:window-y="-9"
     inkscape:window-maximized="1"
     inkscape:current-layer="layer1" />
  <defs
     id="defs1" />
  <g
     inkscape:label="Layer 1"
     inkscape:groupmode="layer"
     id="layer1"
     transform="translate(-11.535157,-236.36256)">
    <path
       style="font-weight:bold;font-size:80px;font-family:Montserrat;-inkscape-font-specification:'Montserrat, Bold';text-align:justify;letter-spacing:-5px;word-spacing:-18px;white-space:pre;stroke-width:15.7417"
       d="m 29.775157,294.28256 q -5.68,0 -10.48,-2.08 -4.72,-2.16 -7.76,-6.08 l 7.2,-8.64 q 2.32,3.04 4.88,4.64 2.56,1.52 5.52,1.52 7.92,0 7.92,-9.28 v -26.64 h -19.68 v -10.4 h 32.56 v 36.32 q 0,10.4 -5.12,15.52 -5.12,5.12 -15.04,5.12 z m 46.360029,0 q -6.72,0 -12.88,-1.76 -6.16,-1.84 -9.92,-4.72 l 4.4,-9.76 q 3.6,2.56 8.48,4.24 4.96,1.6 10,1.6 3.84,0 6.16,-0.72 2.4,-0.8 3.52,-2.16 1.12,-1.36 1.12,-3.12 0,-2.24 -1.76,-3.52 -1.76,-1.36 -4.64,-2.16 -2.88,-0.88 -6.4,-1.6 -3.44,-0.8 -6.96,-1.92 -3.44,-1.12 -6.32,-2.88 -2.88,-1.76 -4.72,-4.64 -1.76,-2.88 -1.76,-7.36 0,-4.8 2.56,-8.72 2.64,-4 7.84,-6.32 5.28,-2.4 13.2,-2.4 5.28,0 10.4,1.28 5.12,1.2 9.04,3.68 l -4,9.84 q -3.92,-2.24 -7.84,-3.28 -3.92,-1.12 -7.68,-1.12 -3.76,0 -6.16,0.88 -2.4,0.88 -3.44,2.32 -1.04,1.36 -1.04,3.2 0,2.16 1.76,3.52 1.76,1.28 4.64,2.08 2.88,0.8 6.32,1.6 3.52,0.8 6.96,1.84 3.52,1.04 6.4,2.8 2.88,1.76 4.64,4.64 1.84,2.88 1.84,7.28 0,4.72 -2.64,8.64 -2.64,3.92 -7.92,6.32 -5.2,2.4 -13.2,2.4 z m 39.240034,-13.76 -0.72,-14.96 26.8,-28.24 h 14.4 l -24.16,26 -7.2,7.68 z m -11.6,12.8 v -56 h 12.88 v 56 z m 38.32,0 -19.92,-24.4 8.48,-9.2 26.56,33.6 z"
       id="path9" />
    <path
       style="font-weight:500;font-size:80px;font-family:Montserrat;-inkscape-font-specification:'Montserrat, Medium';text-align:justify;letter-spacing:-5px;word-spacing:-18px;white-space:pre;fill:#1200bc;stroke-width:15.7417"
       d="m 155.53528,293.32256 v -56 h 29.92 q 11.6,0 17.12,4.16 5.52,4.08 5.52,10.48 0,4.24 -2.4,7.6 -2.32,3.28 -6.8,5.2 -4.48,1.92 -11.04,1.92 l 1.6,-4.32 q 6.56,0 11.28,1.84 4.8,1.84 7.36,5.36 2.64,3.44 2.64,8.32 0,7.28 -6.08,11.36 -6,4.08 -17.6,4.08 z m 18.56,-13.2 h 11.36 q 3.12,0 4.64,-1.12 1.6,-1.12 1.6,-3.28 0,-2.16 -1.6,-3.28 -1.52,-1.12 -4.64,-1.12 h -12.64 v -12.48 h 10.08 q 3.2,0 4.64,-1.04 1.52,-1.12 1.52,-3.12 0,-2.08 -1.52,-3.12 -1.44,-1.04 -4.64,-1.04 h -8.8 z m 52.04012,13.2 -17.92,-56 h 19.44 l 14.48,47.28 h -9.76 l 15.36,-47.28 h 17.36 l 14.32,47.28 h -9.36 l 15.12,-47.28 h 17.92 l -17.92,56 h -20.24 l -11.68,-38.72 h 5.44 l -12.32,38.72 z m 93,-12 -1.04,-20.72 21.12,-23.28 h 20.56 l -23.68,26.08 -10.48,10.72 z m -16.88,12 v -56 h 18.56 v 56 z m 36.8,0 -16.48,-21.76 12.24,-12.96 26.08,34.72 z"
       id="path10" />
    <path
       style="font-weight:bold;font-size:80px;font-family:Montserrat;-inkscape-font-specification:'Montserrat, Bold';text-align:justify;letter-spacing:-5px;word-spacing:-18px;white-space:pre;stroke-width:15.7417"
       d="m 361.53529,293.32256 v -56 h 12.96 v 45.44 h 28.08 v 10.56 z m 49.71997,0 v -45.44 h -17.92 v -10.56 h 48.8 v 10.56 h -17.92 v 45.44 z m 32.84,0 v -56 h 25.44 q 9.12,0 16.08,3.52 6.96,3.44 10.88,9.68 3.92,6.24 3.92,14.8 0,8.48 -3.92,14.8 -3.92,6.24 -10.88,9.76 -6.96,3.44 -16.08,3.44 z m 12.96,-10.64 h 11.84 q 5.6,0 9.68,-2.08 4.16,-2.16 6.4,-6.08 2.32,-3.92 2.32,-9.2 0,-5.36 -2.32,-9.2 -2.24,-3.92 -6.4,-6 -4.08,-2.16 -9.68,-2.16 h -11.84 z"
       id="path11" />
  </g>
</svg>
