<?xml version="1.0" encoding="UTF-8" standalone="no"?>
<!-- Created with Inkscape (http://www.inkscape.org/) -->

<svg
   width="505.48666"
   height="55.720764"
   viewBox="0 0 505.48666 55.720764"
   version="1.1"
   id="svg1"
   xmlns="http://www.w3.org/2000/svg"
   xmlns:svg="http://www.w3.org/2000/svg">
  <defs
     id="defs1" />
  <g
     id="layer1"
     transform="translate(-2.6875513,-234.37326)">
    <g
       id="text1"
       style="font-weight:900;font-size:75.1515px;font-family:Montserrat;-inkscape-font-specification:'Montserrat, Heavy';text-align:justify;letter-spacing:-1px;word-spacing:-18px;white-space:pre;fill:#1200bc;stroke-width:15.7417"
       transform="matrix(1.0129039,0,0,1.0129039,-0.67864975,57.29601)"
       aria-label="JSKBWKLTD">
      <path
         style="fill:#000000"
         d="m 22.712403,229.83227 q -6.162422,0 -11.122421,-1.95394 -4.9599989,-2.02909 -8.2666648,-5.86181 l 9.5442398,-11.27273 q 2.104242,2.55515 4.133333,3.90788 2.02909,1.27757 4.208483,1.27757 5.711514,0 5.711514,-6.53818 V 189.40077 H 9.034831 V 176.0238 h 35.396355 v 32.31514 q 0,10.82182 -5.561211,16.15758 -5.561211,5.33575 -16.157572,5.33575 z m 48.449639,0 q -6.613331,0 -12.775754,-1.50303 -6.162423,-1.50303 -10.145452,-3.90788 l 5.711514,-12.92605 q 3.757574,2.17939 8.341816,3.53212 4.659393,1.27757 9.018179,1.27757 2.555151,0 3.98303,-0.3006 1.50303,-0.37576 2.179393,-0.97697 0.676364,-0.67637 0.676364,-1.57818 0,-1.42788 -1.578182,-2.25455 -1.578181,-0.82667 -4.208484,-1.35273 -2.555151,-0.60121 -5.636362,-1.20242 -3.081211,-0.67636 -6.237574,-1.72849 -3.081211,-1.05212 -5.711514,-2.7806 -2.555151,-1.72848 -4.133332,-4.50909 -1.578182,-2.85576 -1.578182,-7.06424 0,-4.88485 2.705454,-8.86788 2.780606,-4.05818 8.191513,-6.46303 5.48606,-2.40484 13.602421,-2.40484 5.335757,0 10.52121,1.12727 5.185453,1.12727 9.318786,3.45697 l -5.335757,12.8509 q -3.907878,-1.95394 -7.590301,-2.93091 -3.607272,-0.97696 -7.064241,-0.97696 -2.555151,0 -4.05818,0.4509 -1.50303,0.45091 -2.179394,1.20243 -0.601212,0.75151 -0.601212,1.65333 0,1.35273 1.578182,2.17939 1.578181,0.75152 4.133332,1.27758 2.630302,0.52606 5.711514,1.12727 3.156363,0.60121 6.237574,1.65334 3.081211,1.05212 5.636362,2.7806 2.630303,1.72849 4.208484,4.50909 1.578181,2.78061 1.578181,6.91394 0,4.80969 -2.780605,8.86787 -2.705454,3.98303 -8.116362,6.46303 -5.410907,2.40485 -13.602421,2.40485 z M 115.77897,217.35712 114.802,197.89289 134.64199,176.0238 h 19.31394 l -22.24484,24.49939 -9.84485,10.0703 z M 99.922002,228.62985 V 176.0238 h 17.435148 v 52.60605 z m 34.569688,0 -15.48121,-20.44121 11.49818,-12.17454 24.49939,32.61575 z"
         id="path2" />
      <path
         d="M 156.41285,228.62985 V 176.0238 h 28.10666 q 10.89696,0 16.08242,3.90788 5.18545,3.83272 5.18545,9.84484 0,3.98303 -2.25454,7.1394 -2.1794,3.08121 -6.38788,4.88484 -4.20849,1.80364 -10.37091,1.80364 l 1.50303,-4.05818 q 6.16242,0 10.59636,1.72848 4.50909,1.72849 6.91394,5.03515 2.48,3.23152 2.48,7.81576 0,6.83878 -5.71151,10.67151 -5.63637,3.83273 -16.53333,3.83273 z m 17.43514,-12.4 h 10.67152 q 2.9309,0 4.35878,-1.05212 1.50303,-1.05212 1.50303,-3.08121 0,-2.02909 -1.50303,-3.08121 -1.42788,-1.05212 -4.35878,-1.05212 h -11.87394 v -11.72364 h 9.46909 q 3.00606,0 4.35879,-0.97697 1.42787,-1.05212 1.42787,-2.93091 0,-1.95393 -1.42787,-2.9309 -1.35273,-0.97697 -4.35879,-0.97697 h -8.26667 z m 52.58315,12.4 -16.83394,-52.60605 h 18.26182 l 13.60242,44.41453 h -9.16849 l 14.42909,-44.41453 h 16.30788 l 13.45212,44.41453 h -8.79273 l 14.20363,-44.41453 h 16.83394 l -16.83394,52.60605 H 262.87961 L 251.9075,192.25652 h 5.1103 l -11.57333,36.37333 z m 91.06057,-11.27273 -0.97697,-19.46423 19.83999,-21.86909 h 19.31394 l -22.24485,24.49939 -9.84484,10.0703 z m -15.85697,11.27273 V 176.0238 h 17.43515 v 52.60605 z m 34.56969,0 -15.48121,-20.44121 11.49818,-12.17454 24.49939,32.61575 z"
         id="path3" />
      <path
         style="fill:#000000"
         d="M 358.12562,228.62985 V 176.0238 h 17.73575 v 38.85332 h 23.74787 v 13.75273 z m 51.90663,0 V 189.77652 H 394.6262 V 176.0238 h 48.54787 v 13.75272 h -15.40606 v 38.85333 z m 36.72599,0 V 176.0238 h 25.92727 q 8.79273,0 15.48121,3.23151 6.68848,3.15637 10.44606,9.01818 3.75757,5.86182 3.75757,13.97818 0,8.19152 -3.75757,14.12848 -3.75758,5.86182 -10.44606,9.09333 -6.68848,3.15637 -15.48121,3.15637 z M 464.494,214.80197 h 7.44 q 3.75757,0 6.53818,-1.42788 2.85575,-1.42787 4.43393,-4.20848 1.57819,-2.85576 1.57819,-6.91394 0,-3.98303 -1.57819,-6.76363 -1.57818,-2.78061 -4.43393,-4.20849 -2.78061,-1.42787 -6.53818,-1.42787 h -7.44 z"
         id="path4" />
    </g>
  </g>
</svg>
