<?xml version="1.0" encoding="UTF-8" standalone="no"?>
<!-- Created with Inkscape (http://www.inkscape.org/) -->

<svg
   width="300"
   height="97"
   viewBox="0 0 34.237186 11.013802"
   version="1.1"
   id="svg1"
   inkscape:version="1.3 (0e150ed6c4, 2023-07-21)"
   sodipodi:docname="logo.svg"
   xmlns:inkscape="http://www.inkscape.org/namespaces/inkscape"
   xmlns:sodipodi="http://sodipodi.sourceforge.net/DTD/sodipodi-0.dtd"
   xmlns="http://www.w3.org/2000/svg"
   xmlns:svg="http://www.w3.org/2000/svg">
  <sodipodi:namedview
     id="namedview1"
     pagecolor="#ffffff"
     bordercolor="#000000"
     borderopacity="0.25"
     inkscape:showpageshadow="2"
     inkscape:pageopacity="0.0"
     inkscape:pagecheckerboard="0"
     inkscape:deskcolor="#d1d1d1"
     inkscape:document-units="mm"
     showguides="true"
     inkscape:zoom="4.0265009"
     inkscape:cx="265.86359"
     inkscape:cy="69.911818"
     inkscape:window-width="1920"
     inkscape:window-height="1013"
     inkscape:window-x="-9"
     inkscape:window-y="-9"
     inkscape:window-maximized="1"
     inkscape:current-layer="layer1" />
  <defs
     id="defs1" />
  <g
     inkscape:groupmode="layer"
     id="layer1"
     inkscape:label="L1"
     transform="translate(-44.185418,-12.699999)">
    <g
       id="g12"
       style="image-rendering:crisp-edges"
       transform="translate(2.7574527,2.9078327)"
       inkscape:label="LogoGroup">
      <path
         d="m 47.859094,9.7921672 c -0.302918,0 -0.553303,0.045784 -0.750858,0.137976 -0.194263,0.0889 -0.339114,0.2092428 -0.434599,0.3607018 -0.09219,0.148166 -0.137976,0.311059 -0.137976,0.488859 0,0.184385 0.03796,0.336219 0.113688,0.454752 0.07573,0.115241 0.17428,0.207325 0.296106,0.276469 0.125118,0.06915 0.261628,0.126506 0.409794,0.1726 0.151459,0.0428 0.301419,0.08076 0.449585,0.113688 0.148166,0.03292 0.283317,0.07224 0.405143,0.118339 0.125119,0.0428 0.225545,0.100679 0.301274,0.173116 0.07902,0.07244 0.118339,0.167754 0.118339,0.286287 0,0.10207 -0.02962,0.194154 -0.08888,0.276469 -0.05927,0.07902 -0.15135,0.142009 -0.276469,0.188102 -0.125118,0.0461 -0.288011,0.06873 -0.488859,0.06873 -0.220603,0 -0.43303,-0.03744 -0.63717,-0.113171 -0.20414,-0.07573 -0.372141,-0.171564 -0.503845,-0.286805 l -0.182935,0.385507 c 0.138289,0.128411 0.327566,0.233428 0.567924,0.315743 0.240359,0.07902 0.492619,0.118855 0.756026,0.118855 0.302918,0 0.552787,-0.04443 0.750342,-0.133325 0.200848,-0.09219 0.349449,-0.212534 0.444934,-0.360701 0.09548,-0.151459 0.143144,-0.314352 0.143144,-0.488859 0,-0.181093 -0.03796,-0.329177 -0.113688,-0.444418 -0.07573,-0.11524 -0.176155,-0.207324 -0.301274,-0.276469 -0.121825,-0.06914 -0.258335,-0.125141 -0.409794,-0.167948 -0.148166,-0.0428 -0.296251,-0.08076 -0.444417,-0.113688 -0.148167,-0.03622 -0.285193,-0.07605 -0.410311,-0.118856 -0.121826,-0.0428 -0.222252,-0.100162 -0.301274,-0.172599 -0.07573,-0.07244 -0.113688,-0.16963 -0.113688,-0.291455 0,-0.102071 0.02826,-0.194155 0.08423,-0.276469 0.05927,-0.08232 0.151351,-0.148018 0.276469,-0.197404 0.125118,-0.04939 0.284777,-0.07441 0.47904,-0.07441 0.154752,0 0.314412,0.02315 0.479041,0.06925 0.164629,0.0428 0.321055,0.113613 0.469222,0.21239 L 48.970655,10.0981 C 48.825781,9.999314 48.654546,9.9239133 48.456991,9.8712321 48.259436,9.8185509 48.059942,9.7921672 47.859094,9.7921672 Z m -5.057055,0.039274 v 0.4299478 h 1.249536 v 1.940967 c 0,0.467547 -0.197618,0.701249 -0.592729,0.701249 -0.144874,0 -0.27815,-0.03472 -0.399976,-0.103869 -0.118533,-0.07244 -0.225425,-0.174221 -0.32091,-0.305925 l -0.286288,0.335897 c 0.111948,0.161336 0.2568,0.284396 0.434599,0.370003 0.1778,0.08561 0.368435,0.128674 0.572575,0.128674 0.355599,0 0.624027,-0.09532 0.805119,-0.286287 0.184385,-0.19097 0.276469,-0.479314 0.276469,-0.864547 V 9.8314412 Z m 8.390702,0 v 3.4571538 h 0.49351 v -0.894519 l 0.63407,-0.643372 1.321883,1.537891 h 0.577742 L 52.65105,11.388969 54.126412,9.8314412 H 53.563139 L 51.686251,11.765173 V 9.8314412 Z m 4.043164,0.8149378 c -0.250237,0 -0.476114,0.05788 -0.676961,0.173116 -0.197555,0.111948 -0.353982,0.268374 -0.469222,0.469222 -0.111949,0.200847 -0.167949,0.431316 -0.167949,0.69143 0,0.260115 0.05787,0.490583 0.173116,0.691431 0.118533,0.200848 0.283301,0.358632 0.494027,0.473873 0.214018,0.11524 0.460653,0.173116 0.740523,0.173116 0.217311,0 0.413571,-0.0366 0.588078,-0.109037 0.1778,-0.07244 0.325884,-0.177454 0.444417,-0.315743 l -0.261999,-0.306442 c -0.09549,0.105365 -0.206969,0.184515 -0.33538,0.237195 -0.125118,0.05268 -0.265378,0.07906 -0.42013,0.07906 -0.187677,0 -0.353803,-0.03796 -0.498677,-0.113688 -0.144874,-0.07573 -0.258749,-0.181263 -0.341065,-0.31626 -0.05834,-0.102091 -0.0948,-0.214065 -0.11007,-0.335897 h 2.125451 c 0.0033,-0.02305 0.0047,-0.04756 0.0047,-0.0739 0.0033,-0.02635 0.0052,-0.04949 0.0052,-0.06925 0,-0.269992 -0.056,-0.505053 -0.167949,-0.7059 -0.108655,-0.204141 -0.259972,-0.362442 -0.454235,-0.47439 -0.194263,-0.111948 -0.418265,-0.167948 -0.671794,-0.167948 z m 2.961576,0 c -0.250237,0 -0.461305,0.04766 -0.632519,0.143143 -0.141246,0.07877 -0.24689,0.18853 -0.320911,0.325562 v -0.443901 h -0.454236 v 2.617412 h 0.473873 v -1.303797 c 0,-0.286455 0.07404,-0.505348 0.222209,-0.656807 0.148167,-0.151459 0.349018,-0.22686 0.602547,-0.22686 h 0.04961 c 0.01976,0 0.03968,0.0014 0.05943,0.0047 z m 1.593185,0 c -0.250237,0 -0.460789,0.04766 -0.632003,0.143143 -0.141245,0.07877 -0.246889,0.18853 -0.320911,0.325562 V 10.671183 H 58.383 v 2.617412 h 0.474389 v -1.303797 c 0,-0.286455 0.07404,-0.505348 0.222209,-0.656807 0.148166,-0.151459 0.349018,-0.22686 0.602547,-0.22686 h 0.04961 c 0.01976,0 0.03916,0.0014 0.05891,0.0047 z m -4.554761,0.399975 c 0.167922,0 0.314132,0.03796 0.43925,0.113688 0.128411,0.07244 0.228836,0.174738 0.301273,0.306442 0.05492,0.09989 0.08783,0.210008 0.09922,0.330729 H 54.39358 c 0.01385,-0.119542 0.04751,-0.228311 0.101286,-0.326079 0.07244,-0.134996 0.172862,-0.238655 0.301274,-0.311092 0.128411,-0.07573 0.275137,-0.113688 0.439766,-0.113688 z m -10.079488,1.595252 c -0.09219,0 -0.171342,0.03149 -0.237195,0.09405 -0.06585,0.06256 -0.0987,0.143068 -0.0987,0.241845 0,0.09878 0.03285,0.181161 0.0987,0.247014 0.06585,0.06256 0.145002,0.09405 0.237195,0.09405 0.0889,0 0.164299,-0.03149 0.226859,-0.09405 0.06585,-0.06585 0.0987,-0.148236 0.0987,-0.247014 0,-0.09878 -0.03285,-0.179285 -0.0987,-0.241845 -0.06256,-0.06256 -0.137959,-0.09405 -0.226859,-0.09405 z m 4.424536,0 c -0.09219,0 -0.170825,0.03149 -0.236678,0.09405 -0.06585,0.06256 -0.09922,0.143068 -0.09922,0.241845 0,0.09878 0.03337,0.181161 0.09922,0.247014 0.06585,0.06256 0.144485,0.09405 0.236678,0.09405 0.0889,0 0.164816,-0.03149 0.227376,-0.09405 0.06585,-0.06585 0.0987,-0.148236 0.0987,-0.247014 0,-0.09878 -0.03285,-0.179285 -0.0987,-0.241845 -0.06256,-0.06256 -0.138476,-0.09405 -0.227376,-0.09405 z"
         style="font-weight:500;font-size:4.93889px;font-family:Montserrat;-inkscape-font-specification:'Montserrat, Medium';text-align:justify;letter-spacing:-0.396875px;word-spacing:0px;stroke-width:4.16499"
         id="path_jskerr"
         inkscape:label="path_jskerr" />
      <path
         d="m 73.880762,13.780554 c -0.347133,0 -0.666499,0.05675 -0.958598,0.171049 -0.2921,0.110067 -0.548296,0.269024 -0.768429,0.476457 -0.215899,0.203199 -0.383245,0.444587 -0.501778,0.723987 -0.118533,0.279399 -0.177767,0.583956 -0.177767,0.914156 0,0.330199 0.05923,0.635273 0.177767,0.914673 0.118533,0.279399 0.285879,0.522755 0.501778,0.730188 0.2159,0.203199 0.467644,0.36164 0.75551,0.47594 0.292099,0.110066 0.611982,0.165364 0.959114,0.165364 0.313266,0 0.622276,-0.04639 0.927076,-0.139526 0.309032,-0.09737 0.580037,-0.239548 0.81287,-0.425814 V 16.01556 h -0.781348 v 1.381311 c -0.09096,0.05283 -0.183615,0.0966 -0.279053,0.129708 -0.203199,0.06773 -0.41497,0.101802 -0.635103,0.101802 -0.237066,0 -0.453289,-0.03801 -0.648022,-0.114205 -0.194733,-0.0762 -0.364047,-0.184311 -0.50798,-0.324011 -0.143933,-0.143933 -0.25598,-0.311278 -0.336413,-0.501778 -0.0762,-0.1905 -0.114205,-0.397818 -0.114205,-0.622184 0,-0.2286 0.038,-0.437886 0.114205,-0.628386 0.08043,-0.190499 0.19248,-0.355877 0.336413,-0.495577 0.143933,-0.139699 0.315731,-0.247294 0.514698,-0.323494 0.198966,-0.0762 0.414672,-0.114722 0.647505,-0.114722 0.2413,0 0.461459,0.04246 0.660425,0.127124 0.2032,0.08043 0.391774,0.207289 0.56534,0.380856 l 0.520382,-0.50798 C 75.457716,14.266958 75.20152,14.087289 74.89672,13.964522 74.596154,13.841756 74.257528,13.780554 73.880762,13.780554 Z m -32.4528,0.06304 v 4.445207 h 2.209684 c 0.575733,0 1.00963,-0.105627 1.30173,-0.317293 0.292099,-0.211666 0.438216,-0.508352 0.438216,-0.889352 0,-0.258232 -0.05923,-0.473939 -0.177767,-0.647505 -0.1143,-0.173567 -0.271289,-0.304875 -0.470256,-0.393775 -0.05133,-0.02402 -0.104454,-0.0447 -0.159163,-0.06253 0.171116,-0.09164 0.309809,-0.214083 0.413412,-0.369487 0.110066,-0.169333 0.164847,-0.372199 0.164847,-0.609265 0,-0.351366 -0.139696,-0.630759 -0.419096,-0.838191 -0.279399,-0.211667 -0.685648,-0.317811 -1.219047,-0.317811 z m 5.119584,0 v 2.508374 c 0,0.647699 0.171282,1.143315 0.514181,1.486215 0.347133,0.342899 0.825456,0.51418 1.435054,0.51418 0.605366,0 1.079753,-0.171281 1.422653,-0.51418 0.347132,-0.3429 0.520381,-0.838516 0.520381,-1.486215 v -2.508374 h -0.81287 v 2.476852 c 0,0.457199 -0.09724,0.789405 -0.291972,0.996838 -0.194733,0.207433 -0.472158,0.311092 -0.83199,0.311092 -0.359833,0 -0.639226,-0.103659 -0.838192,-0.311092 -0.194733,-0.207433 -0.291972,-0.539639 -0.291972,-0.996838 v -2.476852 z m 5.373316,0 v 4.445207 h 0.825789 v -4.445207 z m 2.351277,0 v 4.445207 h 3.149679 v -0.698665 h -2.324406 v -3.746542 z m 4.128947,0 v 4.445207 h 1.943034 c 0.482599,0 0.906141,-0.0933 1.270207,-0.279569 0.364066,-0.186267 0.647911,-0.444431 0.851111,-0.77463 0.203199,-0.334433 0.304374,-0.723905 0.304374,-1.168404 0,-0.448733 -0.101175,-0.838205 -0.304374,-1.168404 -0.2032,-0.3302 -0.487045,-0.588364 -0.851111,-0.77463 -0.364066,-0.186266 -0.787608,-0.27957 -1.270207,-0.27957 z m 5.57072,0 v 4.445207 h 0.825272 v -4.445207 z m 2.351277,0 v 4.445207 h 0.819072 v -3.009635 l 2.451013,3.009635 h 0.679545 v -4.445207 h -0.819071 v 3.010153 l -2.45153,-3.010153 z m -24.069848,0.648023 h 1.168404 c 0.287866,0 0.508025,0.05085 0.660425,0.152445 0.156633,0.1016 0.235128,0.256105 0.235128,0.463538 0,0.2032 -0.07849,0.35522 -0.235128,0.45682 -0.1524,0.101599 -0.372559,0.152445 -0.660425,0.152445 h -1.168404 z m 16.973641,0.05064 h 1.07952 c 0.334433,0 0.622214,0.06369 0.863514,0.190686 0.245533,0.127 0.434107,0.304701 0.56534,0.533301 0.135466,0.224366 0.203088,0.490918 0.203088,0.799951 0,0.304799 -0.06762,0.571351 -0.203088,0.799951 -0.131233,0.2286 -0.319807,0.406818 -0.56534,0.533818 -0.2413,0.126999 -0.529081,0.190169 -0.863514,0.190169 h -1.07952 z m -16.973641,1.81591 h 1.333252 c 0.309033,0 0.546485,0.05333 0.711584,0.159163 0.1651,0.1016 0.24753,0.262525 0.24753,0.482658 0,0.224366 -0.08243,0.387259 -0.24753,0.488859 -0.165099,0.1016 -0.402551,0.152445 -0.711584,0.152445 h -1.333252 z"
         style="font-weight:600;font-size:6.35px;font-family:Montserrat;-inkscape-font-specification:'Montserrat, Semi-Bold';text-align:justify;letter-spacing:0.325437px;word-spacing:0px;display:inline;fill:#3c7a89;stroke-width:4.16499"
         id="path_building"
         inkscape:label="path_building" />
      <path
         d="m 51.568945,18.652608 c -0.05268,0 -0.09706,0.01678 -0.132808,0.05064 -0.03387,0.03387 -0.05064,0.07632 -0.05064,0.127124 0,0.04892 0.01678,0.09016 0.05064,0.124024 0.03575,0.03387 0.08013,0.05064 0.132808,0.05064 0.05456,0 0.09842,-0.01678 0.132292,-0.05064 0.03387,-0.03575 0.05116,-0.07891 0.05116,-0.129708 0,-0.04892 -0.018,-0.08945 -0.05374,-0.12144 -0.03387,-0.03387 -0.07703,-0.05064 -0.129708,-0.05064 z m 9.887252,0 c -0.05268,0 -0.09655,0.01678 -0.132292,0.05064 -0.03387,0.03387 -0.05116,0.07632 -0.05116,0.127124 0,0.04892 0.01729,0.09016 0.05116,0.124024 0.03575,0.03387 0.07961,0.05064 0.132292,0.05064 0.05456,0 0.09894,-0.01678 0.132809,-0.05064 0.03387,-0.03575 0.05064,-0.07891 0.05064,-0.129708 0,-0.04892 -0.01748,-0.08945 -0.05323,-0.12144 -0.03387,-0.03387 -0.07755,-0.05064 -0.130225,-0.05064 z m 13.812594,0.04186 v 0.835608 c -0.05104,-0.0678 -0.108758,-0.126622 -0.180351,-0.166398 -0.1016,-0.05645 -0.215522,-0.08475 -0.341581,-0.08475 -0.144874,0 -0.274871,0.03214 -0.389641,0.09612 -0.112887,0.06397 -0.20183,0.152914 -0.267683,0.267684 -0.06585,0.112888 -0.09922,0.246025 -0.09922,0.398425 0,0.1524 0.03336,0.285722 0.09922,0.400492 0.06585,0.114768 0.154795,0.204228 0.267683,0.268201 0.11477,0.06397 0.244767,0.09612 0.389641,0.09612 0.129822,0 0.245665,-0.0283 0.347265,-0.08475 0.07532,-0.04324 0.134499,-0.106612 0.186036,-0.179834 v 0.24753 h 0.259932 V 18.69447 Z m -28.531075,0.118856 v 1.97559 h 1.351855 v -0.245463 h -1.069702 v -1.730127 z m 18.46864,0.152445 v 0.327112 h -0.253731 v 0.223242 h 0.253731 v 0.821139 c 0,0.150518 0.04124,0.266362 0.124023,0.347266 0.08279,0.0809 0.199848,0.121439 0.350366,0.121439 0.06209,0 0.121321,-0.0089 0.177767,-0.02584 0.05833,-0.01693 0.107952,-0.04332 0.149345,-0.07906 l -0.08475,-0.194303 c -0.05644,0.04704 -0.126691,0.07028 -0.211357,0.07028 -0.07526,0 -0.13379,-0.02132 -0.175183,-0.0646 -0.03951,-0.04327 -0.05943,-0.105648 -0.05943,-0.186552 v -0.80977 h 0.429431 V 19.292879 H 65.47714 v -0.327112 z m -9.150863,0.31316 c -0.129822,0 -0.243744,0.02709 -0.341581,0.08165 -0.07482,0.04172 -0.130075,0.100405 -0.175183,0.167432 v -0.235128 h -0.259416 v 1.496033 h 0.270785 V 20.01842 c 0,-0.109126 0.0187,-0.200507 0.05633,-0.273885 0.03763,-0.07338 0.0904,-0.128771 0.15813,-0.166398 0.06773,-0.03763 0.146181,-0.05633 0.234611,-0.05633 0.124176,0 0.218884,0.03669 0.284737,0.110071 0.06773,0.07338 0.101803,0.182238 0.101803,0.327111 v 0.829924 h 0.270784 v -0.770496 c 0,-0.109126 0.018,-0.200507 0.05374,-0.273885 0.03763,-0.07338 0.0904,-0.128771 0.158129,-0.166398 0.06773,-0.03763 0.146367,-0.05633 0.236679,-0.05633 0.122295,0 0.21752,0.03669 0.285253,0.110071 0.06773,0.07338 0.101803,0.182238 0.101803,0.327111 v 0.829924 h 0.270784 v -0.860929 c 0,-0.146756 -0.02638,-0.267847 -0.07906,-0.363802 -0.0508,-0.09595 -0.122265,-0.167935 -0.214458,-0.214974 -0.09219,-0.04703 -0.198429,-0.07028 -0.318843,-0.07028 -0.150519,0 -0.282436,0.03477 -0.395325,0.104386 -0.07659,0.04723 -0.13649,0.10562 -0.181901,0.173633 -0.03655,-0.07012 -0.08496,-0.128433 -0.148311,-0.171049 -0.103482,-0.0715 -0.226494,-0.10697 -0.369487,-0.10697 z m 13.899927,0 c -0.142993,0 -0.27177,0.03285 -0.38654,0.0987 -0.112887,0.06397 -0.202347,0.15343 -0.2682,0.2682 -0.06397,0.114771 -0.09612,0.246688 -0.09612,0.395325 0,0.148636 0.03337,0.280037 0.09922,0.394808 0.06773,0.114768 0.161739,0.204931 0.282153,0.270784 0.122296,0.06585 0.263305,0.09922 0.42323,0.09922 0.124178,0 0.236179,-0.02114 0.335897,-0.06253 0.1016,-0.04139 0.185998,-0.101329 0.253732,-0.180351 l -0.149345,-0.175183 c -0.05456,0.0602 -0.118342,0.105285 -0.19172,0.135392 -0.0715,0.0301 -0.151866,0.04547 -0.240295,0.04547 -0.107245,0 -0.201952,-0.02184 -0.284738,-0.06511 -0.08278,-0.04327 -0.14778,-0.10321 -0.19482,-0.180351 -0.03304,-0.05782 -0.04953,-0.123336 -0.05839,-0.192236 h 1.209745 c 0.0019,-0.01317 0.0031,-0.02732 0.0031,-0.04237 0.0019,-0.01505 0.0026,-0.02799 0.0026,-0.03927 0,-0.154281 -0.03214,-0.288822 -0.09612,-0.403593 -0.06209,-0.116648 -0.148409,-0.206811 -0.259416,-0.270784 -0.111007,-0.06397 -0.239082,-0.09612 -0.383956,-0.09612 z m -18.522384,0.01395 v 1.496033 h 0.271302 v -1.496033 z m 9.887769,0 v 1.496033 h 0.271301 v -1.496033 z m 8.634615,0.214457 c 0.09595,0 0.179651,0.02184 0.251147,0.06511 0.07338,0.04139 0.13069,0.09992 0.172083,0.175183 0.03104,0.05644 0.046,0.120533 0.05271,0.188619 h -0.952914 c 0.0081,-0.06741 0.02336,-0.13079 0.05374,-0.186035 0.04139,-0.07714 0.0987,-0.136374 0.172082,-0.177767 0.07338,-0.04327 0.157074,-0.06511 0.251148,-0.06511 z m 4.814176,0.0088 c 0.09407,0 0.178472,0.02132 0.253732,0.0646 0.07714,0.04327 0.137594,0.104429 0.180867,0.183451 0.04515,0.07714 0.0677,0.169741 0.0677,0.276986 0,0.105363 -0.02254,0.198149 -0.0677,0.279053 -0.04327,0.07902 -0.103727,0.140178 -0.180867,0.183451 -0.07526,0.04327 -0.159658,0.06511 -0.253732,0.06511 -0.09596,0 -0.181572,-0.02184 -0.256832,-0.06511 -0.07526,-0.04327 -0.135714,-0.104429 -0.180867,-0.183451 -0.04515,-0.0809 -0.0677,-0.17369 -0.0677,-0.279053 0,-0.107245 0.02254,-0.199845 0.0677,-0.276986 0.04516,-0.07902 0.105608,-0.140178 0.180867,-0.183451 0.07526,-0.04327 0.160877,-0.0646 0.256832,-0.0646 z"
         style="font-weight:500;font-size:2.82222px;font-family:Montserrat;-inkscape-font-specification:'Montserrat, Medium';text-align:justify;letter-spacing:3.05858px;word-spacing:0px;stroke-width:4.16499"
         id="path_limited"
         inkscape:label="path_limited" />
    </g>
  </g>
</svg>
