<?xml version="1.0" encoding="UTF-8" standalone="no"?>
<!-- Created with Inkscape (http://www.inkscape.org/) -->

<svg
   width="499.2446"
   height="156.78313"
   viewBox="0 0 499.2446 156.78313"
   version="1.1"
   id="svg1"
   xmlns:inkscape="http://www.inkscape.org/namespaces/inkscape"
   xmlns:sodipodi="http://sodipodi.sourceforge.net/DTD/sodipodi-0.dtd"
   xmlns="http://www.w3.org/2000/svg"
   xmlns:svg="http://www.w3.org/2000/svg">
  <sodipodi:namedview
     id="namedview1"
     pagecolor="#ffffff"
     bordercolor="#000000"
     borderopacity="0.25"
     inkscape:showpageshadow="2"
     inkscape:pageopacity="0.0"
     inkscape:pagecheckerboard="0"
     inkscape:deskcolor="#d1d1d1"
     inkscape:document-units="px" />
  <defs
     id="defs1" />
  <g
     inkscape:label="Layer 1"
     inkscape:groupmode="layer"
     id="layer1"
     transform="translate(-7.4061561,-166.40077)">
    <g
       id="g7">
      <path
         d="m 42.041641,68.802178 q -3.28,0 -5.92,-1.04 -2.64,-1.08 -4.4,-3.12 l 5.08,-6 q 1.12,1.36 2.2,2.08 1.08,0.68 2.24,0.68 3.04,0 3.04,-3.48 v -10.64 h -9.52 v -7.12 h 18.84 v 17.2 q 0,5.76 -2.96,8.6 -2.96,2.84 -8.6,2.84 z m 19.480009,-0.24 q -2.24,0 -3.76,-1.44 -1.52,-1.48 -1.52,-3.76 0,-2.32 1.52,-3.72 1.52,-1.4 3.76,-1.4 2.24,0 3.76,1.4 1.52,1.4 1.52,3.72 0,2.28 -1.52,3.76 -1.52,1.44 -3.76,1.44 z m 30.800004,0.24 q -3.52,0 -6.8,-0.8 -3.28,-0.8 -5.4,-2.08 l 3.04,-6.88 q 2,1.16 4.44,1.88 2.48,0.68 4.8,0.68 1.36,0 2.12,-0.16 0.8,-0.2 1.16,-0.52 0.36,-0.36 0.36,-0.84 0,-0.76 -0.84,-1.2 -0.84,-0.44 -2.24,-0.72 -1.36,-0.32 -3,-0.64 -1.64,-0.36 -3.32,-0.92 -1.64,-0.56 -3.04,-1.48 -1.36,-0.92 -2.2,-2.4 -0.84,-1.52 -0.84,-3.76 0,-2.6 1.44,-4.72 1.48,-2.16 4.36,-3.44 2.92,-1.28 7.24,-1.28 2.84,0 5.6,0.6 2.759996,0.6 4.959996,1.84 l -2.84,6.84 q -2.079996,-1.04 -4.039996,-1.56 -1.92,-0.52 -3.76,-0.52 -1.36,0 -2.16,0.24 -0.8,0.24 -1.16,0.64 -0.32,0.4 -0.32,0.88 0,0.72 0.84,1.16 0.84,0.4 2.2,0.68 1.4,0.28 3.04,0.6 1.68,0.32 3.32,0.88 1.639996,0.56 2.999996,1.48 1.4,0.92 2.24,2.4 0.84,1.48 0.84,3.68 0,2.56 -1.48,4.72 -1.44,2.12 -4.319996,3.44 -2.88,1.28 -7.24,1.28 z m 20.440006,-0.24 q -2.24,0 -3.76,-1.44 -1.52,-1.48 -1.52,-3.76 0,-2.32 1.52,-3.72 1.52,-1.4 3.76,-1.4 2.24,0 3.76,1.4 1.52,1.4 1.52,3.72 0,2.28 -1.52,3.76 -1.52,1.44 -3.76,1.44 z m 28.8,-6.4 -0.52,-10.36 10.56,-11.64 h 10.28 l -11.84,13.04 -5.24,5.36 z m -8.44,6 v -28 h 9.28 v 28 z m 18.4,0 -8.24,-10.88 6.12,-6.48 13.04,17.36 z m 23.19996,0.4 q -4,0 -7,-1.48 -2.96,-1.48 -4.6,-4.04 -1.64,-2.6 -1.64,-5.84 0,-3.32 1.6,-5.88 1.64,-2.56 4.44,-4 2.84,-1.44 6.36,-1.44 3.24,0 5.96,1.28 2.76,1.28 4.4,3.8 1.68,2.52 1.68,6.24 0,0.48 -0.04,1.08 -0.04,0.56 -0.08,1.04 h -16.84 v -4.36 h 12.04 l -3.4,1.16 q 0,-1.28 -0.48,-2.16 -0.44,-0.92 -1.24,-1.4 -0.8,-0.52 -1.92,-0.52 -1.12,0 -1.96,0.52 -0.8,0.48 -1.24,1.4 -0.44,0.88 -0.44,2.16 v 1.36 q 0,1.4 0.56,2.4 0.56,1 1.6,1.52 1.04,0.48 2.52,0.48 1.52,0 2.48,-0.4 1,-0.4 2.08,-1.2 l 4.72,4.76 q -1.6,1.72 -3.96,2.64 -2.32,0.88 -5.6,0.88 z m 14.03999,-0.4 v -21.88 h 8.6 v 6.6 l -1.4,-1.88 q 1,-2.56 3.2,-3.84 2.2,-1.28 5.28,-1.28 v 8 q -0.6,-0.08 -1.08,-0.12 -0.44,-0.04 -0.92,-0.04 -2.04,0 -3.36,1.08 -1.28,1.04 -1.28,3.64 v 9.72 z m 18.23998,0 v -21.88 h 8.6 v 6.6 l -1.4,-1.88 q 1,-2.56 3.2,-3.84 2.2,-1.28 5.28,-1.28 v 8 q -0.6,-0.08 -1.08,-0.12 -0.44,-0.04 -0.92,-0.04 -2.04,0 -3.36,1.08 -1.28,1.04 -1.28,3.64 v 9.72 z"
         id="text3"
         style="font-weight:900;font-size:40px;font-family:Montserrat;-inkscape-font-specification:'Montserrat, Heavy';text-align:justify;letter-spacing:0px;word-spacing:0px;white-space:pre;stroke-width:15.7417"
         transform="matrix(1.4630842,0,0,1.4630842,-12.126587,108.5765)"
         aria-label="J. S. Kerr" />
      <path
         d="m 45.854219,138.65046 v -28 h 14.96 q 5.8,0 8.56,2.08 2.76,2.04 2.76,5.24 0,2.12 -1.2,3.8 -1.16,1.64 -3.4,2.6 -2.24,0.96 -5.52,0.96 l 0.8,-2.16 q 3.28,0 5.64,0.92 2.4,0.92 3.68,2.68 1.32,1.72 1.32,4.16 0,3.64 -3.04,5.68 -3,2.04 -8.8,2.04 z m 9.28,-6.6 h 5.68 q 1.56,0 2.32,-0.56 0.8,-0.56 0.8,-1.64 0,-1.08 -0.8,-1.64 -0.76,-0.56 -2.32,-0.56 h -6.32 v -6.24 h 5.04 q 1.6,0 2.32,-0.52 0.76,-0.56 0.76,-1.56 0,-1.04 -0.76,-1.56 -0.72,-0.52 -2.32,-0.52 h -4.4 z m 35.040028,7.24 q -6.44,0 -10.04,-3.48 -3.6,-3.48 -3.6,-9.76 v -15.4 h 9.44 v 15.12 q 0,3.2 1.16,4.56 1.16,1.32 3.12,1.32 2,0 3.12,-1.32 1.16,-1.36 1.16,-4.56 v -15.12 h 9.280003 v 15.4 q 0,6.28 -3.6,9.76 -3.600003,3.48 -10.040003,3.48 z m 17.960013,-0.64 v -28 h 9.44 v 28 z m 14.00002,0 v -28 h 9.44 v 20.68 h 12.64 v 7.32 z m 24.68002,0 v -28 h 13.8 q 4.68,0 8.24,1.72 3.56,1.68 5.56,4.8 2,3.12 2,7.44 0,4.36 -2,7.52 -2,3.12 -5.56,4.84 -3.56,1.68 -8.24,1.68 z m 9.44,-7.36 h 3.96 q 2,0 3.48,-0.76 1.52,-0.76 2.36,-2.24 0.84,-1.52 0.84,-3.68 0,-2.12 -0.84,-3.6 -0.84,-1.48 -2.36,-2.24 -1.48,-0.76 -3.48,-0.76 h -3.96 z m 23.60001,7.36 v -28 h 9.44 v 28 z m 14.00002,0 v -28 h 7.76 l 14.24,17.04 h -3.6 v -17.04 h 9.2 v 28 h -7.76 l -14.24,-17.04 h 3.6 v 17.04 z m 46.68003,0.64 q -3.4,0 -6.28,-1.04 -2.84,-1.08 -4.96,-3.04 -2.08,-1.96 -3.24,-4.64 -1.16,-2.68 -1.16,-5.92 0,-3.24 1.16,-5.92 1.16,-2.68 3.28,-4.64 2.12,-1.96 5,-3 2.92,-1.08 6.4,-1.08 4.16,0 7.4,1.4 3.28,1.4 5.4,4 l -6.04,5.32 q -1.32,-1.52 -2.88,-2.28 -1.52,-0.8 -3.4,-0.8 -1.56,0 -2.84,0.48 -1.24,0.48 -2.12,1.4 -0.88,0.92 -1.36,2.2 -0.48,1.28 -0.48,2.92 0,1.56 0.48,2.88 0.48,1.28 1.36,2.2 0.88,0.92 2.08,1.44 1.24,0.48 2.76,0.48 1.6,0 3.12,-0.52 1.52,-0.56 3.24,-1.88 l 5.28,6.48 q -2.56,1.72 -5.84,2.64 -3.28,0.92 -6.36,0.92 z m 4,-4.76 v -10.64 h 8.2 v 11.84 z"
         id="text4"
         style="font-weight:900;font-size:40px;font-family:Montserrat;-inkscape-font-specification:'Montserrat, Heavy';text-align:justify;letter-spacing:0px;word-spacing:0px;white-space:pre;fill:#0000ff;stroke-width:15.7417"
         transform="matrix(2.4039111,0,0,2.4039111,-102.82331,-48.712736)"
         aria-label="BUILDING" />
      <path
         d="m 167.76222,241.05572 v -22.04909 h 7.4337 v 16.28483 h 9.95358 v 5.76426 z m 38.90093,0 v -17.22979 h 7.1187 v 17.22979 z m 3.55935,-18.61573 q -1.95292,0 -3.11837,-1.03946 -1.16545,-1.03946 -1.16545,-2.58289 0,-1.54344 1.16545,-2.5829 1.16545,-1.03945 3.11837,-1.03945 1.95292,0 3.11837,0.97646 1.16545,0.97646 1.16545,2.51989 0,1.63793 -1.16545,2.70889 -1.16545,1.03946 -3.11837,1.03946 z m 49.20099,1.07095 q 1.95292,0 3.49635,0.81897 1.57494,0.78747 2.4569,2.4884 0.91346,1.70093 0.91346,4.40981 v 9.8276 h -7.1187 v -8.59915 q 0,-1.60643 -0.53548,-2.2679 -0.53548,-0.69297 -1.38594,-0.69297 -0.62998,0 -1.13396,0.31498 -0.50397,0.31499 -0.81896,1.00796 -0.28349,0.66147 -0.28349,1.82693 v 8.41015 h -7.11871 v -8.59915 q 0,-1.60643 -0.50397,-2.2679 -0.50398,-0.69297 -1.41745,-0.69297 -0.62997,0 -1.13395,0.31498 -0.50398,0.31499 -0.81897,1.00796 -0.28348,0.66147 -0.28348,1.82693 v 8.41015 h -7.11871 v -17.22979 h 6.77222 v 4.9453 l -1.38594,-1.38595 q 0.97646,-1.95292 2.61439,-2.89788 1.63793,-0.97646 3.65385,-0.97646 2.26791,0 4.00033,1.19695 1.76393,1.16546 2.36241,3.71685 l -2.17341,-0.34649 q 0.94496,-2.14191 2.74038,-3.33886 1.82693,-1.22845 4.22083,-1.22845 z m 29.64031,17.54478 v -17.22979 h 7.11871 v 17.22979 z m 3.55936,-18.61573 q -1.95292,0 -3.11837,-1.03946 -1.16546,-1.03946 -1.16546,-2.58289 0,-1.54344 1.16546,-2.5829 1.16545,-1.03945 3.11837,-1.03945 1.95292,0 3.11837,0.97646 1.16545,0.97646 1.16545,2.51989 0,1.63793 -1.16545,2.70889 -1.16545,1.03946 -3.11837,1.03946 z m 34.71158,18.93072 q -3.55935,0 -5.54377,-1.70093 -1.98441,-1.73243 -1.98441,-5.29179 v -14.4264 h 7.1187 V 234.315 q 0,0.78746 0.40948,1.22845 0.44099,0.44098 1.07096,0.44098 0.91346,0 1.60643,-0.47248 l 1.70093,4.94529 q -0.81896,0.47248 -1.98441,0.69298 -1.13396,0.22049 -2.39391,0.22049 z m -9.89059,-11.40253 v -5.19729 h 13.00897 v 5.19729 z m 44.79116,11.40253 q -3.14987,0 -5.51227,-1.16546 -2.33091,-1.16545 -3.62235,-3.18136 -1.29145,-2.04742 -1.29145,-4.59881 0,-2.6144 1.25995,-4.63031 1.29144,-2.01592 3.49635,-3.14987 2.23641,-1.13396 5.0083,-1.13396 2.55139,0 4.6933,1.00796 2.17341,1.00796 3.46486,2.99238 1.32294,1.98442 1.32294,4.9138 0,0.37798 -0.0315,0.85046 -0.0315,0.44098 -0.063,0.81897 H 357.6995 v -3.43336 h 9.4811 l -2.67739,0.91346 q 0,-1.00796 -0.37798,-1.70093 -0.34649,-0.72447 -0.97646,-1.10245 -0.62997,-0.40949 -1.51194,-0.40949 -0.88196,0 -1.54343,0.40949 -0.62998,0.37798 -0.97646,1.10245 -0.34649,0.69297 -0.34649,1.70093 v 1.07096 q 0,1.10245 0.44098,1.88992 0.44098,0.78747 1.25995,1.19695 0.81897,0.37798 1.98442,0.37798 1.19695,0 1.95292,-0.31498 0.78747,-0.31499 1.63793,-0.94496 l 3.71685,3.74834 q -1.25995,1.35444 -3.11837,2.07891 -1.82693,0.69298 -4.40982,0.69298 z m 38.30243,0 q -2.2364,0 -4.15782,-1.07096 -1.88993,-1.10245 -3.02388,-3.08687 -1.13395,-2.01592 -1.13395,-4.7878 0,-2.77189 1.13395,-4.75631 1.13395,-2.01591 3.02388,-3.08687 1.92142,-1.07096 4.15782,-1.07096 2.26791,0 3.71685,0.97646 1.44894,0.94496 2.14191,2.92938 0.69297,1.95292 0.69297,5.0083 0,3.08687 -0.66147,5.07129 -0.62997,1.98441 -2.07891,2.92938 -1.41744,0.94496 -3.81135,0.94496 z m 1.70093,-5.54378 q 0.78747,0 1.41745,-0.37798 0.62997,-0.37798 1.00795,-1.13395 0.37799,-0.78747 0.37799,-1.88992 0,-1.13396 -0.37799,-1.85843 -0.37798,-0.75597 -1.00795,-1.13395 -0.62998,-0.37799 -1.41745,-0.37799 -0.78746,0 -1.41744,0.37799 -0.62997,0.37798 -1.00796,1.13395 -0.37798,0.72447 -0.37798,1.85843 0,1.10245 0.37798,1.88992 0.37799,0.75597 1.00796,1.13395 0.62998,0.37798 1.41744,0.37798 z m 3.02388,5.22879 v -2.3309 l -0.0315,-6.29974 -0.31499,-6.29974 v -8.44166 h 7.11871 v 23.37204 z"
         id="text6"
         style="font-weight:900;font-size:31.4987px;font-family:Montserrat;-inkscape-font-specification:'Montserrat, Heavy';text-align:justify;letter-spacing:19.6867px;word-spacing:0px;white-space:pre;stroke-width:15.7417"
         transform="matrix(1.2698921,0,0,1.2698921,-43.48608,16.669141)"
         aria-label="Limited" />
    </g>
  </g>
</svg>
